<svg width="745" height="587" viewBox="0 0 745 587" fill="none" xmlns="http://www.w3.org/2000/svg">
<g clip-path="url(#clip0_2_435)">
<path d="M47.1262 105.861C91.9159 47.4916 150.021 13.0135 222.552 2.99283C340.323 -13.278 454.295 53.0913 497.78 163.478C498.732 165.894 499.607 168.354 500.314 170.851C502.134 177.283 507.531 184.828 504.092 190.078C499.051 197.773 490.551 203.202 483.357 209.75C481.174 208.253 481.475 205.047 480.815 202.464C459.881 120.471 407.777 66.9049 328.81 40.0661C239.483 9.70646 141.179 37.7014 80.0804 109.362C47.1556 147.979 28.2641 192.563 27.7594 244.026C27.6686 253.277 28.2484 254.843 35.0087 264.091C34.6747 246.722 35.0845 230.294 38.0114 213.943C47.7444 159.569 74.9842 115.353 118.807 82.8694C194.024 27.1163 275.65 20.0164 359.397 61.0175C420.475 90.9204 458.845 140.989 474.286 207.796C477.227 220.523 476.315 222.766 467.027 227.379C463.751 223.74 465.033 218.96 464.09 214.786C445.136 130.854 392.924 77.7152 311.264 54.7731C225.957 30.8061 135.61 63.9845 83.4918 135.229C38.3907 196.882 33.4829 280.785 71.4245 341.849C74.3777 346.602 77.4504 351.28 80.5904 356.185C79.2788 356.592 78.6332 357.015 78.3619 356.845C40.8004 333.196 13.6314 301.383 2.89766 257.59C-2.4834 235.635 1.11391 213.565 6.47298 191.959C14.2096 160.767 27.8943 132.29 47.1262 105.861Z" fill="#50B7E0"/>
<path d="M186.702 456.091C129.924 447.787 82.5707 423.823 47.0366 378.707C26.6684 352.846 14.6938 323.103 7.29074 291.319C7.13444 290.648 7.51734 289.851 7.63864 289.169C9.51819 288.28 10.0972 289.67 10.5928 290.746C35.6444 345.141 78.4096 378.078 135.792 392.077C196.708 406.937 255.029 396.576 311.336 371.049C327.949 363.518 344.091 355.122 359.622 345.541C368.142 340.285 369.451 340.882 375.461 351.032C380.148 358.949 372.126 359.033 368.849 361.021C330.04 384.566 288.738 401.879 243.765 409.575C186.116 419.441 131.351 411.912 80.4062 382.015C76.0183 379.44 71.9359 376.344 67.3555 373.969C71.1649 379.686 77.1532 382.895 82.5703 386.477C115.078 407.972 151.256 418.446 189.909 420.345C252.578 423.423 309.319 403.84 363.237 373.955C368.018 371.306 372.986 368.95 377.569 365.996C386.574 360.192 387.12 369.5 390.462 373.213C394.544 377.749 390.539 380.056 387.04 382.088C339.041 409.971 288.296 430.424 232.508 434.873C177.303 439.275 125.249 428.937 79.0263 396.419C77.9666 395.673 76.854 395.001 75.7407 394.337C75.6226 394.266 75.3315 394.486 74.4827 394.828C85.3357 404.68 97.3066 412.423 109.936 418.949C139.039 433.988 170.163 441.284 202.893 442.729C266.662 445.544 324.339 425.775 379.477 396.143C382.226 394.665 384.946 393.132 387.707 391.677C400.453 384.959 402.038 385.626 408.173 400.849C394.281 409.681 379.568 417.281 364.591 424.375C330.016 440.751 293.797 451.844 255.841 456.696C233.069 459.607 210.179 459.678 186.702 456.091Z" fill="#50B7E0"/>
<path d="M523.596 238.548C504.937 256.581 486.678 274.227 468.418 291.873C468.8 292.352 469.181 292.83 469.562 293.309C484.243 284.114 498.953 274.967 513.594 265.709C524.57 258.769 535.051 250.816 549.398 253.136C553.319 253.771 556.744 250.811 560.212 249.088C582.575 237.973 604.718 226.4 627.796 216.78C630.134 215.806 632.327 214.327 635.597 214.602C635.469 218.339 632.444 219.333 630.395 220.787C610.658 234.787 590.885 248.737 571.029 262.566C564.953 266.797 559.361 271.193 557.067 278.718C555.951 282.377 552.777 284.43 549.614 286.384C530.141 298.416 510.64 310.406 491.308 322.662C487.126 325.313 484.416 325.132 481.557 321.029C469.816 304.174 458.026 287.352 446.046 270.667C442.769 266.103 446.18 264.064 448.672 261.625C471.92 238.872 495.22 216.173 518.489 193.442C532.451 179.802 546.387 166.136 560.327 152.474C563.125 149.732 565.881 146.169 569.771 145.876C582.375 144.927 589.973 135.957 598.713 128.804C614.618 115.786 630.379 102.592 646.295 89.5887C648.369 87.8947 650.172 85.2942 654.003 85.7047C654.155 89.5551 651.468 91.8007 649.384 94.192C633.655 112.232 617.899 130.248 602.047 148.178C597.826 152.952 594.338 157.882 593.743 164.523C593.225 170.311 589.545 174.359 585.526 178.251C564.962 198.165 544.495 218.181 523.596 238.548Z" fill="#50B7E0"/>
<path d="M399.485 366.334C390.268 353.07 381.258 340.343 372.51 327.438C364.222 315.215 366.018 304.999 377.789 296.477C387.892 289.161 398.05 281.918 408.301 274.811C421.261 265.827 430.862 267.83 439.96 280.906C458.214 307.144 476.549 333.327 494.903 359.495C504.231 372.793 502.386 383.38 489.007 392.749C479.428 399.457 469.84 406.153 460.338 412.968C447.769 421.984 437.04 420.341 428.255 407.785C418.721 394.157 409.285 380.46 399.485 366.334Z" fill="#50B7E0"/>
<path d="M539.23 308.66C570.284 297.102 600.767 285.756 631.273 274.468C633.933 273.484 637.014 271.708 639.425 272.283C659.597 277.1 677.098 266.989 695.579 262.625C710.508 259.101 725.28 254.905 740.123 251.016C741.592 250.631 743.079 249.83 744.923 251.316C744.576 255.144 740.85 255.393 738.419 256.537C716.05 267.062 693.611 277.441 671.151 287.772C664.901 290.646 659.194 294 655.52 300.155C653.409 303.692 649.665 305.208 645.979 306.578C601.835 322.98 557.683 339.36 513.538 355.757C510.84 356.759 507.877 358.355 505.708 355.356C499.502 346.773 493.549 338.007 486.645 328.089C504.818 321.381 521.742 315.134 539.23 308.66Z" fill="#50B7E0"/>
<path d="M44.125 564V470.875H63.75V511.938H64.9375L98.5 470.875H122.062L87.5625 512.562L122.5 564H98.875L73.4375 525.75L63.75 537.562V564H44.125ZM170.338 565.375C163.171 565.375 157.004 563.917 151.838 561C146.671 558.083 142.692 553.938 139.9 548.562C137.108 543.146 135.713 536.75 135.713 529.375C135.713 522.208 137.088 515.917 139.838 510.5C142.629 505.083 146.546 500.854 151.588 497.812C156.629 494.771 162.567 493.25 169.4 493.25C175.567 493.25 181.129 494.562 186.088 497.188C191.088 499.812 195.046 503.75 197.963 509C200.921 514.25 202.4 520.833 202.4 528.75V534H154.775C154.983 539.292 156.525 543.438 159.4 546.438C162.275 549.438 166.025 550.938 170.65 550.938C173.858 550.938 176.608 550.25 178.9 548.875C181.233 547.5 182.9 545.5 183.9 542.875L201.775 544.062C200.4 550.479 196.963 555.646 191.463 559.562C186.004 563.438 178.963 565.375 170.338 565.375ZM154.9 522.062H183.838C183.379 517.646 181.963 514.146 179.588 511.562C177.213 508.979 173.879 507.688 169.588 507.688C165.254 507.688 161.817 509.042 159.275 511.75C156.775 514.417 155.317 517.854 154.9 522.062ZM279.55 514.062L261.925 515.125C261.425 512.917 260.175 511.021 258.175 509.438C256.217 507.812 253.55 507 250.175 507C247.175 507 244.654 507.625 242.613 508.875C240.571 510.125 239.55 511.792 239.55 513.875C239.55 515.542 240.217 516.958 241.55 518.125C242.883 519.292 245.154 520.229 248.363 520.938L261.05 523.438C274.467 526.104 281.175 532.396 281.175 542.312C281.175 546.938 279.842 550.979 277.175 554.438C274.508 557.896 270.842 560.583 266.175 562.5C261.508 564.417 256.154 565.375 250.113 565.375C240.863 565.375 233.508 563.458 228.05 559.625C222.592 555.75 219.383 550.479 218.425 543.812L237.425 542.812C238.717 548.562 242.967 551.438 250.175 551.438C253.55 551.438 256.279 550.771 258.363 549.438C260.446 548.104 261.488 546.417 261.488 544.375C261.488 540.917 258.508 538.583 252.55 537.375L240.488 534.875C227.029 532.167 220.3 525.542 220.3 515C220.3 508.25 222.988 502.938 228.363 499.062C233.779 495.188 240.946 493.25 249.863 493.25C258.696 493.25 265.654 495.125 270.738 498.875C275.821 502.583 278.758 507.646 279.55 514.062ZM357.825 514.062L340.2 515.125C339.7 512.917 338.45 511.021 336.45 509.438C334.492 507.812 331.825 507 328.45 507C325.45 507 322.929 507.625 320.888 508.875C318.846 510.125 317.825 511.792 317.825 513.875C317.825 515.542 318.492 516.958 319.825 518.125C321.158 519.292 323.429 520.229 326.638 520.938L339.325 523.438C352.742 526.104 359.45 532.396 359.45 542.312C359.45 546.938 358.117 550.979 355.45 554.438C352.783 557.896 349.117 560.583 344.45 562.5C339.783 564.417 334.429 565.375 328.388 565.375C319.138 565.375 311.783 563.458 306.325 559.625C300.867 555.75 297.658 550.479 296.7 543.812L315.7 542.812C316.992 548.562 321.242 551.438 328.45 551.438C331.825 551.438 334.554 550.771 336.638 549.438C338.721 548.104 339.763 546.417 339.763 544.375C339.763 540.917 336.783 538.583 330.825 537.375L318.763 534.875C305.304 532.167 298.575 525.542 298.575 515C298.575 508.25 301.263 502.938 306.638 499.062C312.054 495.188 319.221 493.25 328.138 493.25C336.971 493.25 343.929 495.125 349.013 498.875C354.096 502.583 357.033 507.646 357.825 514.062ZM409.6 565.375C402.558 565.375 396.454 563.875 391.288 560.875C386.163 557.833 382.204 553.625 379.413 548.25C376.663 542.833 375.288 536.542 375.288 529.375C375.288 522.167 376.663 515.854 379.413 510.438C382.204 505.021 386.163 500.812 391.288 497.812C396.454 494.771 402.558 493.25 409.6 493.25C416.683 493.25 422.788 494.771 427.913 497.812C433.079 500.812 437.038 505.021 439.788 510.438C442.579 515.854 443.975 522.167 443.975 529.375C443.975 536.542 442.579 542.833 439.788 548.25C437.038 553.625 433.079 557.833 427.913 560.875C422.788 563.875 416.683 565.375 409.6 565.375ZM394.975 529.25C394.975 535.333 396.204 540.354 398.663 544.312C401.121 548.271 404.788 550.25 409.663 550.25C414.496 550.25 418.142 548.271 420.6 544.312C423.058 540.354 424.288 535.333 424.288 529.25C424.288 523.167 423.058 518.167 420.6 514.25C418.142 510.333 414.496 508.375 409.663 508.375C404.788 508.375 401.121 510.333 398.663 514.25C396.204 518.167 394.975 523.167 394.975 529.25ZM463.125 470.875H482.5V520.688H483.562L505.875 494.125H528.125L502.25 524.438L529.375 564H506.75L487.75 535.812L482.5 541.75V564H463.125V470.875ZM588.775 534.312V494.125H608.15V564H589.525V551.312H588.775C587.233 555.396 584.629 558.688 580.962 561.188C577.337 563.688 572.9 564.917 567.65 564.875C560.608 564.917 554.9 562.604 550.525 557.938C546.192 553.229 544.025 546.792 544.025 538.625V494.125H563.4V535.25C563.4 539.333 564.504 542.583 566.712 545C568.921 547.375 571.858 548.542 575.525 548.5C578.983 548.542 582.046 547.354 584.712 544.938C587.421 542.521 588.775 538.979 588.775 534.312Z" fill="#50B7E0"/>
</g>
<defs>
<clipPath id="clip0_2_435">
<rect width="745" height="587" fill="white"/>
</clipPath>
</defs>
</svg>
